<svg xmlns="http://www.w3.org/2000/svg" width="1121.333" height="913.333" viewBox="0 0 840.5 685.4" xmlns:v="https://vecta.io/nano"><style><![CDATA[.B{fill:none}.C{fill:#fff}.D{text-anchor:middle}.E{font-family:Helvetica,sans-Serif}.F{font-size:10px}.G{stroke:#000}.H{fill:#2de5a3}.I{fill:#2daee5}]]></style><g transform="matrix(1 0 0 1 4 681.4)"><path d="M-4 4v-685.4h840.5V4H-4z" class="C"/><path d="M305.01-624h-67.02v36h67.02v-36z" class="G I"/><text x="271.5" y="-607.75" class="C D E F">autobatching</text><text x="271.5" y="-596.5" class="C D E F">(821 lines)</text><path fill="#e52d2d" d="M530.26-372h-83.52v36h83.52v-36z" class="G"/><text x="488.5" y="-355.75" class="C D E F">models.interface</text><text x="488.5" y="-344.5" class="C D E F">(250 lines)</text><g class="G"><path d="M305.18-596.25c14.95 5.86 31.91 14.67 43.7 27.25 49.89 53.21 18.6 93.28 61.86 152 10.55 14.32 25.07 27.33 38.64 37.76" class="B"/><path d="M451.39-382.1l5.96 8.76-10.12-3.14 4.16-5.62z"/><use href="#B" fill="#e52d2d"/></g><text x="794.5" y="-467.75" class="C D E F">state</text><text x="794.5" y="-456.5" class="C D E F">(687 lines)</text><g class="G"><path d="M305.31-596.23c42.19 11.31 117.7 27.28 182.19 18.23" class="B"/><use href="#B" x="-306" y="-42" class="I"/></g><text x="488.5" y="-509.75" class="C D E F">elastic</text><text x="488.5" y="-498.5" class="C D E F">(887 lines)</text><g class="G"><path d="M517.22-514.57c45.43-9.49 137.96-23.42 211.04.57 13.99 4.59 27.44 13.45 38.47 22.33" class="B"/><path d="M768.87-494.44l5.35 9.15-9.88-3.82 4.53-5.33z"/><path d="M517.13-253h-57.26v36h57.26v-36z" class="I"/></g><text x="488.5" y="-236.75" class="C D E F">integrators</text><text x="488.5" y="-225.5" class="C D E F">(953 lines)</text><g class="G"><path d="M517.52-241.42c14.84-3.89 33.17-9.48 48.74-16.58 51.34-23.43 58.12-40.2 107.24-68m2 0c46.93-26.56 83.48-79.39 102.8-112.02" class="B"/><path d="M775.18-439.61l8.02-6.92-1.96 10.41-6.06-3.49z"/><path fill="#e5a72d" d="M703.51-253h-58.02v36h58.02v-36z"/></g><text x="674.5" y="-236.75" class="C D E F">transforms</text><text x="674.5" y="-225.5" class="C D E F">(891 lines)</text><g class="G"><path d="M517.45-235h116.58" class="B"/><path d="M633.78-238.5l10 3.5-10 3.5v-7z"/><use href="#B" x="-120" y="70" class="I"/></g><text x="674.5" y="-397.75" class="C D E F">io</text><text x="674.5" y="-386.5" class="C D E F">(307 lines)</text><g class="G"><path d="M712.92-418.2l43.39-25.74" class="B"/><path d="M714.85-415.28l-10.38 2.1 6.81-8.12 3.57 6.02zm39.47-31.55l10.39-2.09-6.82 8.11-3.57-6.02z"/><use href="#B" x="-120" y="-28" class="I"/></g><text x="674.5" y="-495.75" class="C D E F">math</text><text x="674.5" y="-484.5" class="C D E F">(732 lines)</text><path d="M313.26-344h-83.52v36h83.52v-36z" class="G I"/><text x="271.5" y="-327.75" class="C D E F">models.fairchem</text><text x="271.5" y="-316.5" class="C D E F">(315 lines)</text><g class="G"><path d="M313.7-331.37l121.57-15.83" class="B"/><path d="M434.57-350.64l10.37 2.18-9.47 4.77-.9-6.95z"/><path d="M313.75-324.82c43.3.96 113.35 1.74 173.75-1.18" class="B"/><path d="M314.38-302h-85.76v36h85.76v-36z" class="I"/></g><text x="271.5" y="-285.75" class="C D E F">models.graphpes</text><text x="271.5" y="-274.5" class="C D E F">(144 lines)</text><g class="G"><path d="M314.77-295.33c11.17-3.22 23.16-6.89 34.11-10.67 28.03-9.67 33.88-15.18 61.86-25 7.94-2.79 16.41-5.54 24.73-8.12" class="B"/><path d="M434.21-342.4l10.58.44-8.54 6.26-2.04-6.7z"/><use href="#B" x="-306" y="175" fill="#e5a72d"/></g><text x="488.5" y="-292.75" class="C D E F">neighbors</text><text x="488.5" y="-281.5" class="C D E F">(621 lines)</text><g class="G"><path d="M314.72-285.37l134.27-4.38" class="B"/><path d="M448.42-293.23l10.11 3.17-9.89 3.83-.22-7z"/><path d="M314.48-295.95C357.5-307.3 426.53-323.06 487.5-326m2 0c81.68-3.94 112.83 40.28 184 0m-143.16-37.32l104.45-23.84" class="B"/><path d="M633.89-390.55l10.53 1.19-8.97 5.64-1.56-6.83z"/><path d="M530.58-341.84c46.58 12.78 119.16 29.29 142.92 15.84" class="B"/><path d="M131.51-120H25.49v36h106.02v-36z" class="H"/></g><text x="78.5" y="-103.75" class="C D E F">models.lennard_jones</text><text x="78.5" y="-92.5" class="C D E F">(251 lines)</text><g class="G"><path d="M131.83-118.71c2.05-1.6 3.96-3.36 5.68-5.29 67.83-75.95-20.43-155.42 56.61-222 25.82-22.32 45.29 6.1 76.38-8m2 140c33.83-4.57 44.58 4.4 76.38-8 31.92-12.45 31.24-30.63 61.86-46 11.9-5.97 25.63-10.7 38.16-14.27" class="B"/><path d="M447.95-285.64l10.57.81-8.76 5.96-1.81-6.77z"/><g class="B"><path d="M131.9-120.05l5.61-3.95c34.86-27.31 18.52-59.4 56.61-82 29.35-17.42 42.55-3.43 76.38-8"/><path d="M131.78-118.33c2.09-1.71 4.02-3.59 5.73-5.67 95.62-116.3-57.07-235.28 56.61-334 24.62-21.38 260.79-6.95 293.38-8M131.88-99.75c38.43 1.1 91.85 1.5 138.62-2.25"/></g><path d="M348.51-260H194.49v36h154.02v-36z" class="H"/></g><text x="271.5" y="-243.75" class="C D E F">unbatched.models.lennard_jones</text><text x="271.5" y="-232.5" class="C D E F">(188 lines)</text><g class="G"><path d="M131.75-119.72c2.01-1.33 3.94-2.76 5.76-4.28 35.01-29.37 20.37-60.1 54.51-92.21" class="B"/><path d="M189.6-218.75l9.89-3.8-5.36 9.14-4.53-5.34z"/><path d="M306.51-400h-70.02v36h70.02v-36z" class="H"/></g><text x="271.5" y="-383.75" class="C D E F">models.mace</text><text x="271.5" y="-372.5" class="C D E F">(277 lines)</text><g class="G"><path d="M306.57-377.56l128.64 16.75" class="B"/><path d="M435.65-364.28l9.47 4.76-10.37 2.18.9-6.94z"/><path d="M306.98-366.29L410.74-321l38.81 15.54" class="B"/><path d="M450.55-308.82l8.07 6.87-10.59-.35 2.52-6.52z"/><path d="M489.5-578c10.15-1.42 174.64-18.18 184-14M306.72-391.41c14.56-5.46 30.78-13.67 42.16-25.59 50.68-53.03 3.26-108.89 61.86-153 27.4-20.63 42.79-3.24 76.76-8" class="B"/><path d="M316.26-666h-89.52v36h89.52v-36z" class="I"/></g><text x="271.5" y="-649.75" class="C D E F">models.mattersim</text><text x="271.5" y="-638.5" class="C D E F">(114 lines)</text><g class="G"><path d="M316.48-643.18c11.8 3.23 23.69 8.53 32.4 17.18 68.75 68.25 8.32 128.27 61.86 209 9.68 14.59 23.76 27.52 37.23 37.81" class="B"/><path d="M449.89-382.12l6.02 8.73-10.14-3.07 4.12-5.66z"/><path d="M316.41-636.31c10.7 3.11 22.06 6.64 32.47 10.31 28.13 9.92 32.97 18.6 61.86 26 33.23 8.52 42.51 6.23 76.76 8m2 0c40.83 2.11 146.66-16.67 184 0" class="B"/><path d="M821.5-652h-54v36h54v-36z" class="I"/></g><text x="794.5" y="-635.75" class="C D E F">units</text><text x="794.5" y="-624.5" class="C D E F">(98 lines)</text><g class="G"><path d="M489.5-592c34.25 1.77 44.76 4.36 76.76-8 28.02-10.82 26.72-28.53 54.48-40 21.92-9.06 29.05-7.61 52.76-8m2 0c27.17-.45 57.63 3.27 80.79 6.99" class="B"/><path d="M756.59-644.51l9.28 5.11-10.45 1.79 1.17-6.9z"/><path d="M115.01-36H41.99V0h73.02v-36z" class="H"/></g><text x="78.5" y="-19.75" class="C D E F">models.morse</text><text x="78.5" y="-8.5" class="C D E F">(258 lines)</text><g class="G"><path d="M115.32-25.16c8.35-3.25 16.46-7.98 22.19-14.84 88.64-106.17-44.96-212.12 56.61-306 25.06-23.17 45.29 6.1 76.38-8m2 0c14.38-6.52 103.69-4.42 162.59-2.25" class="B"/><path d="M435.06-359.75l9.86 3.88-10.13 3.11.27-6.99z"/><path d="M115.25-26.88c7.96-3.19 15.91-7.45 22.26-13.12 41.01-36.63 11.22-78.96 56.61-110 28.17-19.27 47.3 9.88 76.38-8m2 0c29.08-17.88 47.05 9.45 76.38-8 41.72-24.81 24.68-58.8 61.86-90 11.22-9.42 25.39-16.82 38.49-22.34" class="B"/><path d="M447.89-281.58l10.59-.4-8.02 6.92-2.57-6.52z"/><path d="M272.5-32c63.34 1.15 232.94-2.83 293.76-31 30.37-14.07 24.43-37.25 54.48-52 21.29-10.45 35.2 7.94 52.76-8m2 0c95.38-82.76 113.74-246.31 117.21-313.31" class="B"/><path d="M789.21-436.31l3.93-9.84 3.06 10.14-6.99-.3z"/><path d="M115.35-21.73C153.7-25.45 216.32-30.8 270.5-32m-155.2 7.55L194.12-37c169.1-23.29 227.05-5.07 372.14-95 33.32-20.65 64.84-53.04 84.97-75.98" class="B"/><path d="M648.46-210.12l9.18-5.3-3.87 9.86-5.31-4.56z"/><path d="M332.01-92H210.99v36h121.02v-36z" class="H"/></g><text x="271.5" y="-75.75" class="C D E F">unbatched.models.morse</text><text x="271.5" y="-64.5" class="C D E F">(190 lines)</text><g class="G"><path d="M115.43-28.53l84.45-24.76" class="B"/><path d="M198.67-56.59l10.58.55-8.61 6.17-1.97-6.72z"/><path d="M301.26-554h-59.52v36h59.52v-36z" class="I"/></g><text x="271.5" y="-537.75" class="C D E F">models.orb</text><text x="271.5" y="-526.5" class="C D E F">(341 lines)</text><g class="G"><path d="M301.5-532.22l147.23 19.17" class="B"/><path d="M449.02-516.54l9.46 4.76-10.37 2.18.91-6.94z"/><path d="M301.55-532.66c15.28 2.93 33.63 8.42 47.33 18.66 40.96 30.61 27.93 58.75 61.86 97 12.29 13.86 27.79 27.18 41.64 37.98" class="B"/><path d="M454.15-382.07l5.83 8.84-10.07-3.27 4.24-5.57z"/><path d="M301.65-544.41c27.81-7.72 70.98-18.95 109.09-25.59 33.79-5.89 42.79-3.24 76.76-8" class="B"/><path d="M314.38-456h-85.76v36h85.76v-36z" class="H"/></g><text x="271.5" y="-439.75" class="C D E F">models.sevennet</text><text x="271.5" y="-428.5" class="C D E F">(191 lines)</text><g class="G"><path d="M314.72-451.75l134.75-43.87" class="B"/><path d="M448.01-498.82l10.59.23-8.43 6.42-2.16-6.65z"/><path d="M314.83-426.26c11.17 3.37 23.14 7.23 34.05 11.26 30.49 11.25 63.85 25.86 90.2 37.95" class="B"/><path d="M440.2-380.38l7.61 7.37-10.55-1.02 2.94-6.35z"/><path d="M314.69-423.13c11.76 5.29 24.08 12 34.19 20.13 35.58 28.6 25.48 54.43 61.86 82 11.4 8.64 25.61 15.11 38.69 19.78" class="B"/><path d="M450.23-304.64l8.4 6.46-10.59.19 2.19-6.65z"/><path d="M314.73-445.97c43.21-7.57 112.39-18.08 172.77-20.03m2 0c81.74-2.63 102.23 1.03 184 0" class="B"/><path d="M127.01-78H29.99v36h97.02v-36z" class="H"/></g><text x="78.5" y="-61.75" class="C D E F">models.soft_sphere</text><text x="78.5" y="-50.5" class="C D E F">(616 lines)</text><g class="G"><g class="B"><path d="M127.43-73.4c3.76-2.41 7.2-5.25 10.08-8.6 78.2-91.02-32.66-183.8 56.61-264 25.39-22.81 45.29 6.1 76.38-8"/><path d="M127.4-75.83c3.54-1.87 6.95-3.92 10.11-6.17 32.01-22.83 21.92-49.48 56.61-68 30.11-16.08 47.3 9.88 76.38-8m-143 108.5c38.45 7.57 93.91 16.61 143 17.5"/><path d="M127.25-76.3c20.38-6.4 44.57-13.27 66.87-17.7 33.47-6.66 42.35-5.27 76.38-8m2 0c34.03-2.73 42.89-1.43 76.38-8 28.1-5.51 33.8-12.31 61.86-18 33.66-6.82 43.24-1.51 76.76-9"/></g><path fill="#31e52d" d="M344.01-204H198.99v36h145.02v-36z"/></g><text x="271.5" y="-187.75" class="C D E F">unbatched.models.soft_sphere</text><text x="271.5" y="-176.5" class="C D E F">(373 lines)</text><g class="G"><path d="M127.32-75.38c3.6-1.97 7.05-4.17 10.19-6.62 31.94-24.88 22.86-50.84 54.64-78.48" class="B"/><path d="M189.94-163.19l10.03-3.42-5.71 8.93-4.32-5.51z"/><path fill="#2d35e5" d="M706.88-113h-64.76v36h64.76v-36z"/></g><text x="674.5" y="-96.75" class="C D E F">monte_carlo</text><text x="674.5" y="-85.5" class="C D E F">(208 lines)</text><g class="G"><path d="M707.32-103.06c7.88-3.42 15.59-8.22 20.94-14.94 39.36-49.42 57.57-243.84 63.22-318.55" class="B"/><path d="M787.98-436.64l4.22-9.71 2.76 10.22-6.98-.51z"/><path d="M517.11-300.59c16.19-6.84 35.98-17.49 49.15-32.41 43.63-49.44 8.68-90.56 54.48-138 4.25-4.4 9.49-8.02 15-10.96" class="B"/><path d="M633.86-484.96l10.55-.99-7.62 7.35-2.93-6.36z"/><path d="M517.05-282.62l117.26 35.69" class="B"/><path d="M635.16-250.33l8.55 6.26-10.58.44 2.03-6.7z"/><use href="#B" x="-306" y="-84" class="I"/></g><text x="488.5" y="-551.75" class="C D E F">optimizers</text><text x="488.5" y="-540.5" class="C D E F">(961 lines)</text><g class="G"><path d="M516.91-542.34L566.26-528l68.78 21.52" class="B"/><path d="M635.9-509.88l8.45 6.4-10.59.27 2.14-6.67z"/><path d="M517.05-558.2c47.77-13.94 142.24-40.15 156.45-33.8m2 0c23.05 10.29 33.41 4.8 52.76 21 24.58 20.57 42.68 52.88 53.5 76.22" class="B"/><path d="M784.88-496.38l.86 10.56-7.26-7.72 6.4-2.84z"/><path fill="#2d35e5" d="M728.26-568H620.74v36h107.52v-36z"/></g><text x="674.5" y="-551.75" class="C D E F">properties.correlations</text><text x="674.5" y="-540.5" class="C D E F">(349 lines)</text><g class="G"><path d="M720.67-531.57l7.59 4.57c14.81 9.73 29.39 22.93 41.01 34.56" class="B"/><path d="M771.64-495.02l4.46 9.61-9.48-4.73 5.02-4.88z"/><use href="#B" x="-120" y="-154" class="H"/></g><text x="674.5" y="-621.75" class="C D E F">quantities</text><text x="674.5" y="-610.5" class="C D E F">(114 lines)</text><g class="G"><path d="M703.14-612.13c8.82 3.53 18.09 8.45 25.12 15.13 29.75 28.28 47.94 73.03 57.3 102.21" class="B"/><path d="M788.82-496.1l-.43 10.58-6.26-8.54 6.69-2.04z"/><path d="M703.17-623.28l52.73-6.26" class="B"/><path d="M755.38-633l10.34 2.3-9.52 4.65-.82-6.95z"/><path fill="#31e52d" d="M106.76-624H50.24v36h56.52v-36z"/></g><text x="78.5" y="-607.75" class="C D E F">runners</text><text x="78.5" y="-596.5" class="C D E F">(368 lines)</text><g class="G"><path d="M106.87-606h119.45" class="B"/><path d="M226.23-609.5l10 3.5-10 3.5v-7z"/><path d="M84.63-587.64C96.55-548.77 130.12-458.41 194.12-418c29.23 18.46 121.01 8.52 154.76 16 29.37 6.51 61.15 17.23 86.87 26.89" class="B"/><path d="M436.86-378.43l8.09 6.84-10.59-.3 2.5-6.54z"/><path d="M489.5-648c33.97 4.75 42.82 3.07 76.76 8 22.82 3.31 48.2 8 68.54 12" class="B"/><path d="M635.22-631.48l9.12 5.39-10.49 1.47 1.37-6.86z"/><path d="M489.5-648c33.97 4.75 44.76-4.36 76.76 8 28.02 10.82 26.72 28.53 54.48 40 21.92 9.06 31.1-1.67 52.76 8m-401-84c28.76-2.26 187.45 24.15 215 28" class="B"/><use href="#B" x="-306" y="-154" class="I"/></g><text x="488.5" y="-621.75" class="C D E F">trajectory</text><text x="488.5" y="-610.5" class="C D E F">(762 lines)</text><g class="G"><path d="M272.5-676c34.03-2.67 43.26-.25 76.38 8 28.78 7.17 33.88 15.18 61.86 25 12.36 4.34 26.02 8.6 38.34 12.25" class="B"/><path d="M449.87-634.17l8.62 6.16-10.58.57 1.96-6.73z"/><path d="M105.95-624.22c22.42-14.45 55.96-33.81 88.17-43.78 32.6-10.09 42.35-5.33 76.38-8m219 28c80.99 11.32 102.23 1.36 184 0m-156.35 32.22L620.74-600c23.45 3.56 31.1-1.67 52.76 8M342.32-260.31l6.56-3.69c34.49-21.28 27.48-45.53 61.86-67 7.55-4.71 16.12-8.51 24.73-11.55" class="B"/><path d="M434.29-345.85l10.59.3-8.46 6.37-2.13-6.67z"/><path d="M348.91-259.41l99.83-22.76" class="B"/><path d="M447.94-285.57l10.53 1.19-8.98 5.63-1.55-6.82z"/><path d="M313.47-223.58L348.88-207c62.19 29.94 71.27 85.05 138.62 70" class="B"/><path d="M566.26-456H410.74v36h155.52v-36z" class="H"/></g><text x="488.5" y="-439.75" class="C D E F">unbatched.unbatched_integrators</text><text x="488.5" y="-428.5" class="C D E F">(1723 lines)</text><g class="G"><path d="M343.82-260.36l5.06-3.64c44.22-35.13 25.65-67.66 61.86-111 11.79-14.11 27.07-27.4 40.9-38.1" class="B"/><path d="M449.16-415.61l10.09-3.22-5.88 8.81-4.21-5.59z"/><path d="M137.51-372H19.49v36h118.02v-36z" class="H"/></g><text x="78.5" y="-355.75" class="C D E F">unbatched.models.mace</text><text x="78.5" y="-344.5" class="C D E F">(199 lines)</text><g class="G"><path d="M137.56-348.81c47.37 3.28 110.07 5.19 132.94-5.19m-132.66-8.55L225-375.33" class="B"/><path d="M224.19-378.75l10.41 2.01-9.39 4.92-1.02-6.93z"/><path d="M89.29-335.64c16.94 29.7 54.75 87.57 104.83 113.64 30.27 15.76 42.55 12.57 76.38 8M82.89-372.32c9.1-43.26 38.46-151.48 111.23-196.68 55.4-34.42 228.79.06 293.38-9M328.27-92.43c7.72-4.45 14.93-9.91 20.61-16.57 66.49-77.91-9.86-148.88 61.86-222 6.79-6.92 15.58-11.78 24.77-15.19" class="B"/><path d="M434.35-349.49l10.59.38-8.52 6.3-2.07-6.68z"/><path d="M326.38-92.43c8.24-4.5 16.11-9.97 22.5-16.57 49.33-50.9 12.48-96.15 61.86-147 10.55-10.86 25.09-18.66 38.68-24.09" class="B"/><path d="M448.01-283.31l10.6-.13-8.2 6.71-2.4-6.58z"/><path d="M489.5-123c20.42-.99 168.86 13.74 184 0M332.4-90.13c52.66-13.72 125.42-31.44 155.1-32.87m2-14c56.98-12.74 115.22-48.34 150.5-72.93" class="B"/><path d="M637.91-212.74l10.18-2.93-6.13 8.64-4.05-5.71z"/><path d="M332.47-90.98c5.59-1.91 11.14-3.92 16.41-6.02 28.58-11.36 32.4-22.19 61.86-31 32.91-9.84 43.24-1.51 76.76-9" class="B"/><path d="M343.26-148H199.74v36h143.52v-36z" class="H"/></g><text x="271.5" y="-131.75" class="C D E F">unbatched.models.particle_life</text><text x="271.5" y="-120.5" class="C D E F">(151 lines)</text><g class="G"><path d="M327.01-148.42c8.06-4.49 15.72-9.96 21.87-16.58 53.61-57.67 4.39-112.18 61.86-166 7.01-6.56 15.81-11.26 24.94-14.62" class="B"/><path d="M434.42-348.89l10.59.37-8.51 6.31-2.08-6.68z"/><path d="M342.35-148.48c2.27-1.4 4.46-2.9 6.53-4.52 42.15-32.79 22.03-67.43 61.86-103 11.12-9.93 25.53-17.5 38.86-23.01" class="B"/><path d="M447.97-282.13l10.59-.32-8.08 6.85-2.51-6.53z"/><path d="M343.7-124.8c41.88 2.34 95.87 4.11 143.8 1.8m-143.96-6.47c51.84-.16 117.49-1.61 143.96-7.53m-162.93-67.44c8.72-4.55 17.23-10.04 24.31-16.56 41.27-37.99 18.07-74.96 61.86-110 7.26-5.81 15.96-10.15 24.85-13.4" class="B"/><path d="M434.42-347.7l10.59.32-8.47 6.35-2.12-6.67z"/><path d="M340.3-204.49l8.58-4.51c32.84-19.11 29.01-39.91 61.86-59 11.72-6.81 25.64-11.77 38.39-15.3" class="B"/><path d="M447.92-286.61l10.56.94-8.83 5.85-1.73-6.79z"/><path d="M338.89-204.42c3.43-1.44 6.78-2.96 9.99-4.58 30.61-15.39 29.93-33.58 61.86-46 64.76-25.19 88.9 3.75 155.52-16 51.36-15.22 60.62-28.62 107.24-55M309-167.64c42.75 19.18 115.73 44.67 178.5 30.64m53.25-319.45c9.29-4.99 18.3-11.12 25.51-18.55 41.37-42.6 12.3-80.2 54.48-122 4.35-4.31 9.63-7.87 15.16-10.8" class="B"/><path d="M634.04-610.8l10.55-.98-7.64 7.35-2.91-6.37z"/><path d="M675.5-466l78.98-.25" class="B"/><path d="M754.34-469.75l9.99 3.55-10.02 3.45.03-7z"/><path d="M566.55-454.58c32.79-5.79 71.57-10.98 106.95-11.42m-158.91 46.24c15.64 11.92 35.73 28.28 51.67 44.76 34.8 35.99 68.9 83.12 88.99 112.48" class="B"/><path d="M657.94-264.78l2.72 10.24-8.51-6.32 5.79-3.92z"/><path d="M348.88-512H194.12v36h154.76v-36z" class="H"/></g><text x="271.5" y="-495.75" class="C D E F">unbatched.unbatched_optimizers</text><text x="271.5" y="-484.5" class="C D E F">(854 lines)</text><g class="G"><path d="M489.5-480c50.13 1.62 107.76-3.98 144.97-8.57" class="B"/><path d="M633.93-492.03l10.37 2.2-9.48 4.74-.89-6.94z"/><path d="M489.5-480c81.97 2.64 101.99 15.03 184 14m-324.19-21.77c40.99 3.01 92.3 6.29 138.19 7.77m-144.01 4.49l62.19 16.2" class="B"/><path d="M406.32-462.76l8.79 5.91-10.55.86 1.76-6.77z"/><path d="M115.76-162H41.24v36h74.52v-36z" class="H"/></g><text x="78.5" y="-145.75" class="C D E F">workflows.a2c</text><text x="78.5" y="-134.5" class="C D E F">(703 lines)</text><g class="G"><path d="M85.48-162.42c10.88-33.7 34.39-107.62 52.03-170.58 27.59-98.46-20.72-156.09 56.61-223 25.81-22.33 47.64 10.42 76.38-8m2 0c28.24-18.1 122.43-3.97 176.31 6.12" class="B"/><path d="M449.32-561.35l9.17 5.32-10.48 1.56 1.31-6.88z"/><path d="M272.5-564c10.08-6.46 203.15-12.33 215-14M116.23-131.22c22.28 7.27 51.42 15.96 77.89 21.22 33.47 6.66 42.35 10.73 76.38 8m-154.62-50l71.74-15.77" class="B"/><path d="M186.66-171.15l10.52 1.27-9.02 5.57-1.5-6.84z"/><path d="M84.89-162.43c17.94-60.85 76.02-254.12 107.59-304.02" class="B"/><path d="M189.71-468.59l8.89-5.76-3.36 10.05-5.53-4.29z"/></g></g><defs ><path id="B" d="M822.76-484h-56.52v36h56.52v-36z"/></defs></svg>
